<mxfile host="app.diagrams.net" modified="2024-03-28T02:22:00.658Z" agent="Mozilla/5.0 (Macintosh; Intel Mac OS X 10_15_7) AppleWebKit/537.36 (KHTML, like Gecko) Chrome/122.0.0.0 Safari/537.36" version="24.2.0" etag="6Vi-sMW9bDuwrPmLysw6" type="github">
  <diagram name="第 1 页" id="52vyv0cwLg6fkDk0Gpff">
    <mxGraphModel>
      <root>
        <mxCell id="0" />
        <mxCell id="1" parent="0" />
      </root>
    </mxGraphModel>
  </diagram>
</mxfile>
